<svg width="20" height="20" viewBox="0 0 20 20" fill="none" xmlns="http://www.w3.org/2000/svg">
<path fill-rule="evenodd" clip-rule="evenodd" d="M17.1086 3.77528C17.3526 3.5312 17.3526 3.13547 17.1086 2.89139C16.8645 2.64732 16.4688 2.64732 16.2247 2.89139L2.89137 16.2248C2.64729 16.4688 2.64729 16.8645 2.89137 17.1086C3.13544 17.3527 3.53118 17.3527 3.77525 17.1086L6.14767 14.7362C7.28625 15.2722 8.59764 15.625 9.99998 15.625C12.2366 15.625 14.2419 14.7274 15.6838 13.6208C16.4061 13.0664 17.0026 12.448 17.4241 11.8408C17.8338 11.2503 18.125 10.6023 18.125 10C18.125 9.39775 17.8338 8.74975 17.4241 8.15929C17.0026 7.55203 16.4061 6.93357 15.6838 6.37919C15.4654 6.21154 15.234 6.04868 14.9908 5.89303L17.1086 3.77528ZM14.0829 6.80094L12.6072 8.27663C12.9344 8.77067 13.125 9.36308 13.125 10C13.125 11.7259 11.7259 13.125 9.99998 13.125C9.36306 13.125 8.77064 12.9344 8.27661 12.6073L7.09601 13.7878C7.98395 14.1496 8.96839 14.375 9.99998 14.375C11.9054 14.375 13.6501 13.6059 14.9227 12.6292C15.5576 12.1419 16.0595 11.6145 16.3971 11.128C16.7464 10.6248 16.875 10.2311 16.875 10C16.875 9.76892 16.7464 9.37525 16.3971 8.872C16.0595 8.3855 15.5576 7.8581 14.9227 7.37081C14.6617 7.17051 14.3809 6.97893 14.0829 6.80094ZM9.19156 11.6923C9.43639 11.8094 9.71048 11.875 9.99998 11.875C11.0355 11.875 11.875 11.0355 11.875 10C11.875 9.7105 11.8094 9.43642 11.6922 9.19158L9.19156 11.6923Z" fill="#848484"/>
<path d="M10 4.375C10.8602 4.375 11.6863 4.50778 12.4593 4.73417C12.608 4.77773 12.6522 4.96385 12.5427 5.07342L11.8556 5.76054C11.804 5.81209 11.7293 5.83273 11.6583 5.81639C11.1255 5.69381 10.5699 5.625 10 5.625C8.09454 5.625 6.34982 6.3941 5.07722 7.37081C4.44232 7.8581 3.94047 8.3855 3.60286 8.872C3.25359 9.37525 3.125 9.76892 3.125 10C3.125 10.2311 3.25359 10.6248 3.60286 11.128C3.89771 11.5529 4.31782 12.0089 4.84243 12.4423C4.93898 12.522 4.94817 12.6679 4.85963 12.7565L4.26888 13.3473C4.19362 13.4225 4.07352 13.4291 3.99197 13.3608C3.41449 12.8764 2.93252 12.3546 2.57592 11.8408C2.16614 11.2503 1.875 10.6023 1.875 10C1.875 9.39775 2.16614 8.74975 2.57592 8.15929C2.99734 7.55203 3.59385 6.93357 4.31617 6.37919C5.75804 5.27257 7.76332 4.375 10 4.375Z" fill="#848484"/>
<path d="M10 6.875C10.0987 6.875 10.1964 6.87958 10.2928 6.88853C10.4568 6.90378 10.5162 7.09993 10.3997 7.21642L9.3895 8.22663C8.84508 8.414 8.414 8.84508 8.22663 9.3895L7.21642 10.3997C7.09993 10.5162 6.90378 10.4568 6.88853 10.2928C6.87958 10.1964 6.875 10.0988 6.875 10C6.875 8.27411 8.27411 6.875 10 6.875Z" fill="#848484"/>
</svg>
