<svg width="102" height="99" viewBox="0 0 102 99" fill="none" xmlns="http://www.w3.org/2000/svg">
<g clip-path="url(#clip0_7315_1016)">
<g clip-path="url(#clip1_7315_1016)">
<path d="M101.5 49.5769C101.5 76.9365 79.1858 99 51.763 99C24.3844 99 2.02594 76.9365 2.02594 49.5769C2.02594 37.9518 6.0509 27.2717 12.8181 18.855C22.1286 7.16404 36.3487 0.131851 51.763 0.131851C67.2657 0.131851 81.4194 7.18601 90.7299 18.8331C97.475 27.2717 101.5 37.9518 101.5 49.5769Z" fill="#EAEEF9"/>
<path d="M96.3472 91.9678C95.5068 91.9239 94.7991 92.5831 94.777 93.4182C94.7328 94.2533 95.3962 94.9565 96.2145 94.9785C97.0549 95.0224 97.7625 94.3631 97.8068 93.5501C97.8289 92.715 97.1875 91.9898 96.3472 91.9678Z" fill="#D6DCE8"/>
<path d="M89.1598 5.07635C87.855 5.01043 86.7271 6.04328 86.6829 7.36181C86.6165 8.65837 87.6338 9.75715 88.9607 9.82308C90.2655 9.88901 91.3934 8.87813 91.4598 7.55959C91.5261 6.26303 90.4867 5.14228 89.1598 5.07635Z" fill="#D6DCE8"/>
<path d="M4.21531 81.1558C3.48551 82.2546 3.81724 83.727 4.90088 84.4302C6.00664 85.1554 7.46624 84.8477 8.19604 83.7709C8.92584 82.6721 8.63835 81.1998 7.53259 80.4746C6.44894 79.7713 4.94511 80.079 4.21531 81.1558Z" fill="#D6DCE8"/>
<path d="M1.49516 76.0135C1.03074 76.7167 1.22978 77.6397 1.93747 78.1012C2.64515 78.5627 3.57399 78.3649 4.03841 77.6837C4.50283 76.9804 4.30379 76.0575 3.61822 75.596C2.93265 75.1345 1.95958 75.3323 1.49516 76.0135Z" fill="#D6DCE8"/>
<path d="M51.5762 58.5798V91.8068L82.7586 82.5331C83.4663 82.3354 83.9307 81.6761 83.9086 80.9509L83.0682 48.3391L51.5762 58.5798Z" fill="url(#paint0_linear_7315_1016)"/>
<path d="M51.5762 58.5798V91.8068L20.3938 82.5331C19.6862 82.3354 19.2217 81.6761 19.2439 80.9509L20.0842 48.3391L51.5762 58.5798Z" fill="url(#paint1_linear_7315_1016)"/>
<path d="M20.1285 48.3171L51.5763 38.6259V58.6017L20.1285 48.3171Z" fill="#989FB0"/>
<path d="M83.0461 48.3171L51.5762 38.6259V58.6017L83.0461 48.3171Z" fill="#AAB2C5"/>
<path d="M51.5762 38.6479L66.4376 27.2426C66.7472 27.0008 67.1453 26.9349 67.5212 27.0668L96.47 37.0437C97.3546 37.3513 97.5315 38.538 96.7354 39.0654L83.0461 48.3611L51.5762 38.6479Z" fill="url(#paint2_linear_7315_1016)"/>
<path d="M51.5762 38.6479L66.4376 27.2426C66.7472 27.0008 67.1453 26.9349 67.5212 27.0668L96.47 37.0437C97.3546 37.3513 97.5315 38.538 96.7354 39.0654L83.0461 48.3611L51.5762 38.6479Z" fill="url(#paint3_linear_7315_1016)"/>
<path d="M51.5762 38.6479L36.7148 27.2426C36.4052 27.0008 36.0072 26.9349 35.6312 27.0668L6.68244 37.0437C5.79783 37.3513 5.62091 38.538 6.41706 39.0654L20.1064 48.3611L51.5762 38.6479Z" fill="url(#paint4_linear_7315_1016)"/>
<path d="M51.5762 58.5798L66.5924 68.6006C66.8799 68.7984 67.2558 68.8424 67.5876 68.7325L96.868 59.0632C97.7969 58.7556 97.9296 57.5249 97.1113 56.9975L83.0239 48.3611L51.5762 58.5798Z" fill="url(#paint5_linear_7315_1016)"/>
<path d="M51.5762 58.5798L36.56 68.6006C36.2725 68.7984 35.8966 68.8424 35.5648 68.7325L6.28436 59.0632C5.35552 58.7556 5.22283 57.5249 6.04109 56.9975L20.1285 48.3611L51.5762 58.5798Z" fill="url(#paint6_linear_7315_1016)"/>
<path d="M10.1098 27.5C10.9432 30.5 14.6098 36.5 21.1098 32C23.6098 30 24.1098 26.5 22.1098 26C20.1098 25.5 14.1099 30.5 17.6098 36C21.1098 41.5 26.1098 40.5 28.6098 40.5C35.6098 40 47.5 42 35 51.5" stroke="#CACFDC" stroke-linejoin="round" stroke-dasharray="4 2"/>
<path d="M3.80814 20.1117L3.48902 19.6713C3.43583 19.7594 3.40037 19.8475 3.36491 19.9532C3.27627 20.1822 3.04579 20.3055 2.81531 20.235C2.72666 20.2174 2.65574 20.147 2.58483 20.0765C2.51391 19.9708 2.47845 19.8298 2.51391 19.6889C2.62029 19.407 2.76212 19.1251 2.93941 18.9314L2.77985 18.7023C2.63802 18.5085 2.6912 18.2267 2.8685 18.0857C3.06352 17.9448 3.32946 17.98 3.48902 18.1738L3.64858 18.4028C3.89679 18.2971 4.16273 18.2443 4.46413 18.2443C4.71234 18.2443 4.92509 18.4205 4.92509 18.6671C4.92509 18.9137 4.73007 19.1075 4.49959 19.1251C4.37548 19.1251 4.28683 19.1428 4.18046 19.1604L4.49959 19.6008C4.37548 19.6537 4.25138 19.7418 4.12727 19.8298C4.00317 19.9179 3.89679 20.006 3.80814 20.1117Z" fill="url(#paint7_linear_7315_1016)"/>
<path d="M10.2971 23.6175C10.102 23.688 9.88929 23.7056 9.67653 23.7232C9.26876 22.8071 8.75461 21.9086 8.20501 21.1511C8.04544 20.9221 7.88588 20.7283 7.72632 20.5521C7.79724 20.5169 7.90361 20.464 7.99226 20.4464C9.05601 20.1117 10.4389 20.5345 11.0771 21.4153C11.7154 22.2786 11.3608 23.2652 10.2971 23.6175Z" fill="url(#paint8_linear_7315_1016)"/>
<path d="M3.50675 26.8767C2.8685 25.9959 2.88623 24.5512 3.54221 23.6528C3.5954 23.5823 3.64859 23.5118 3.7195 23.4413C3.84361 23.6528 3.98544 23.8642 4.14501 24.0932C4.69461 24.8331 5.38605 25.6083 6.14841 26.2777C6.07749 26.4891 5.97112 26.6653 5.86474 26.8239C5.20876 27.7224 4.16274 27.74 3.50675 26.8767Z" fill="url(#paint9_linear_7315_1016)"/>
<path d="M8.20503 21.1512C9.88931 23.4414 11.3254 27.2996 10.1907 28.11C9.07376 28.9204 5.81158 26.3659 4.14503 24.0757C2.46076 21.7854 3.01036 20.6227 4.12731 19.8123C5.24425 19.0019 6.53848 18.8609 8.20503 21.1512Z" fill="url(#paint10_linear_7315_1016)"/>
<path d="M59 55.5C63 51.5 57.8124 48.5 53.8901 45.519C41.3901 36.019 49.8901 30.019 56.8901 30.519C59.3901 30.519 64.3901 31.5191 67.8901 26.0191C71.3901 20.5191 65.3901 15.5191 63.3901 16.0191C61.3901 16.5191 61.8901 20.0191 64.3901 22.0191C70.8901 26.519 74.5568 20.5191 75.3901 17.5191C75.7601 15.6794 77.1 11.7 79.5 10.5" stroke="#CACFDC" stroke-linecap="round" stroke-linejoin="round" stroke-dasharray="4 2"/>
<path d="M83.535 5.39961L83.7465 5.1077C83.7817 5.16608 83.8052 5.22447 83.8287 5.29452C83.8875 5.44632 84.0402 5.52805 84.193 5.48135C84.2518 5.46967 84.2988 5.42297 84.3458 5.37626C84.3928 5.3062 84.4163 5.21279 84.3928 5.11938C84.3223 4.93255 84.2283 4.74573 84.1108 4.61729L84.2165 4.46549C84.3105 4.33705 84.2753 4.15023 84.1578 4.05682C84.0402 3.96341 83.8522 3.98676 83.7465 4.1152L83.6407 4.26699C83.4762 4.19694 83.3 4.16191 83.1002 4.16191C82.9357 4.16191 82.7947 4.27867 82.7947 4.44214C82.7947 4.60561 82.9239 4.73405 83.0767 4.74573C83.1589 4.74573 83.2177 4.75741 83.2882 4.76908L83.0649 5.061C83.1472 5.09602 83.2295 5.15441 83.3117 5.21279C83.394 5.2595 83.4762 5.32955 83.535 5.39961Z" fill="url(#paint11_linear_7315_1016)"/>
<path d="M79.2225 7.72321C79.3517 7.76991 79.4927 7.78159 79.6338 7.79326C79.904 7.18609 80.2448 6.59059 80.6091 6.0885C80.7148 5.9367 80.8206 5.80826 80.9263 5.6915C80.8793 5.66815 80.8088 5.63312 80.7501 5.62144C80.045 5.39959 79.1285 5.67982 78.7055 6.26365C78.2942 6.83579 78.5174 7.48968 79.2225 7.72321Z" fill="url(#paint12_linear_7315_1016)"/>
<path d="M83.723 9.88333C84.146 9.2995 84.1343 8.34203 83.6995 7.74653C83.6643 7.69983 83.629 7.65312 83.582 7.60641C83.4998 7.74653 83.4057 7.88665 83.3 8.03844C82.9357 8.52886 82.4774 9.04262 81.9722 9.48633C82.0192 9.62645 82.0897 9.74321 82.1602 9.8483C82.6067 10.4438 83.3 10.4555 83.723 9.88333Z" fill="url(#paint13_linear_7315_1016)"/>
<path d="M80.6091 6.08856C79.4928 7.60651 78.541 10.1637 79.293 10.7008C80.0333 11.2379 82.1954 9.5448 83.3 8.02686C84.4163 6.50892 84.052 5.73827 83.3118 5.20115C82.5715 4.66403 81.7254 4.57062 80.6091 6.08856Z" fill="url(#paint14_linear_7315_1016)"/>
</g>
</g>
<defs>
<linearGradient id="paint0_linear_7315_1016" x1="66.3707" y1="53.9911" x2="69.4322" y2="106.788" gradientUnits="userSpaceOnUse">
<stop stop-color="#B4BDD0"/>
<stop offset="1" stop-color="#D9DEE9"/>
</linearGradient>
<linearGradient id="paint1_linear_7315_1016" x1="36.4571" y1="49.5857" x2="34.4977" y2="115.565" gradientUnits="userSpaceOnUse">
<stop stop-color="#C0C8D8"/>
<stop offset="1" stop-color="#DEDFE2"/>
</linearGradient>
<linearGradient id="paint2_linear_7315_1016" x1="51.5781" y1="37.6751" x2="97.2426" y2="37.6751" gradientUnits="userSpaceOnUse">
<stop stop-color="#989FB0"/>
<stop offset="1" stop-color="#AAB2C5"/>
</linearGradient>
<linearGradient id="paint3_linear_7315_1016" x1="83.7631" y1="27.5101" x2="68.5319" y2="45.7903" gradientUnits="userSpaceOnUse">
<stop stop-color="#D6DCE8"/>
<stop offset="1" stop-color="white"/>
</linearGradient>
<linearGradient id="paint4_linear_7315_1016" x1="18.0041" y1="24.9" x2="34.8076" y2="46.5769" gradientUnits="userSpaceOnUse">
<stop stop-color="#D6DCE8"/>
<stop offset="1" stop-color="white"/>
</linearGradient>
<linearGradient id="paint5_linear_7315_1016" x1="67.4547" y1="48.6292" x2="81.1758" y2="66.9207" gradientUnits="userSpaceOnUse">
<stop stop-color="#D6DCE8"/>
<stop offset="1" stop-color="white"/>
</linearGradient>
<linearGradient id="paint6_linear_7315_1016" x1="38.7277" y1="49.9133" x2="15.5284" y2="68.5177" gradientUnits="userSpaceOnUse">
<stop stop-color="#D6DCE8"/>
<stop offset="1" stop-color="white"/>
</linearGradient>
<linearGradient id="paint7_linear_7315_1016" x1="2.37916" y1="19.7956" x2="4.63718" y2="18.1433" gradientUnits="userSpaceOnUse">
<stop stop-color="#989FB0"/>
<stop offset="1" stop-color="#AAB2C5"/>
</linearGradient>
<linearGradient id="paint8_linear_7315_1016" x1="8.51489" y1="19.9703" x2="10.9107" y2="23.2861" gradientUnits="userSpaceOnUse">
<stop stop-color="#D6DCE8"/>
<stop offset="1" stop-color="white"/>
</linearGradient>
<linearGradient id="paint9_linear_7315_1016" x1="2.96875" y1="23.9775" x2="5.36461" y2="27.2934" gradientUnits="userSpaceOnUse">
<stop stop-color="#D6DCE8"/>
<stop offset="1" stop-color="white"/>
</linearGradient>
<linearGradient id="paint10_linear_7315_1016" x1="5.13548" y1="25.4351" x2="9.1778" y2="22.4771" gradientUnits="userSpaceOnUse">
<stop stop-color="#989FB0"/>
<stop offset="1" stop-color="#AAB2C5"/>
</linearGradient>
<linearGradient id="paint11_linear_7315_1016" x1="84.4763" y1="5.18967" x2="82.9798" y2="4.09456" gradientUnits="userSpaceOnUse">
<stop stop-color="#989FB0"/>
<stop offset="1" stop-color="#AAB2C5"/>
</linearGradient>
<linearGradient id="paint12_linear_7315_1016" x1="80.4184" y1="5.28178" x2="78.8305" y2="7.47949" gradientUnits="userSpaceOnUse">
<stop stop-color="#D6DCE8"/>
<stop offset="1" stop-color="white"/>
</linearGradient>
<linearGradient id="paint13_linear_7315_1016" x1="84.0942" y1="7.93766" x2="82.5063" y2="10.1354" gradientUnits="userSpaceOnUse">
<stop stop-color="#D6DCE8"/>
<stop offset="1" stop-color="white"/>
</linearGradient>
<linearGradient id="paint14_linear_7315_1016" x1="82.6496" y1="8.92745" x2="79.9704" y2="6.96697" gradientUnits="userSpaceOnUse">
<stop stop-color="#989FB0"/>
<stop offset="1" stop-color="#AAB2C5"/>
</linearGradient>
<clipPath id="clip0_7315_1016">
<rect width="101" height="99" fill="white" transform="translate(0.5)"/>
</clipPath>
<clipPath id="clip1_7315_1016">
<rect width="101" height="99" fill="white" transform="translate(0.5)"/>
</clipPath>
</defs>
</svg>
