<svg width="37" height="37" viewBox="0 0 37 37" fill="none" xmlns="http://www.w3.org/2000/svg">
<g clip-path="url(#clip0_7428_7484)">
<path d="M11.6981 31.366C13.7051 34.8412 17.4448 37 21.4579 37C27.6725 37 32.7285 31.9441 32.7285 25.7296V16.9052C32.7285 15.3223 31.4407 14.0345 29.8578 14.0345C29.2275 14.0345 28.644 14.2387 28.17 14.5844C27.8477 13.3518 26.7245 12.4397 25.3923 12.4397C24.7258 12.4397 24.1115 12.6681 23.6238 13.0506C23.2213 11.9509 22.1643 11.1638 20.9268 11.1638C20.3372 11.1638 19.7884 11.3426 19.332 11.6487V6.06038C19.332 4.47747 18.0442 3.1897 16.4612 3.1897C14.8783 3.1897 13.5905 4.47747 13.5905 6.06038V21.2797C13.5905 21.4754 13.4758 21.6551 13.2984 21.7377C13.0594 21.8488 12.7798 21.7605 12.648 21.5322L10.7339 18.2168C9.5907 16.2368 7.04984 15.5559 5.06969 16.6991C4.70077 16.9121 4.43686 17.2561 4.32658 17.6676C4.21637 18.0792 4.27303 18.5089 4.48607 18.8779L11.6981 31.366ZM5.559 17.9978C5.57179 17.9502 5.60807 17.8616 5.70765 17.8041C6.14999 17.5487 6.64081 17.4183 7.13822 17.4183C7.38753 17.4183 7.63859 17.4511 7.88581 17.5174C8.62646 17.7158 9.24548 18.1908 9.62885 18.8549L11.543 22.1703C12.0078 22.9752 12.9938 23.2865 13.8365 22.8947C14.4621 22.6036 14.8664 21.9698 14.8664 21.2798V6.06038C14.8664 5.18098 15.5818 4.46555 16.4612 4.46555C17.3406 4.46555 18.056 5.18098 18.056 6.06038V17.8621C18.056 18.2144 18.3416 18.5 18.694 18.5C19.0463 18.5 19.332 18.2144 19.332 17.8621V14.0345C19.332 13.1551 20.0474 12.4397 20.9268 12.4397C21.8062 12.4397 22.5216 13.1551 22.5216 14.0345V17.8621C22.5216 18.2144 22.8072 18.5 23.1596 18.5C23.5119 18.5 23.7975 18.2144 23.7975 17.8621V15.3104C23.7975 14.431 24.513 13.7155 25.3924 13.7155C26.2718 13.7155 26.9872 14.431 26.9872 15.3104V18.1811C26.9872 18.5333 27.2728 18.819 27.6252 18.819C27.9775 18.819 28.2631 18.5334 28.2631 18.1811V16.9052C28.2631 16.0258 28.9786 15.3104 29.858 15.3104C30.7374 15.3104 31.4528 16.0258 31.4528 16.9052V25.7296C31.4528 31.2406 26.9692 35.7242 21.4581 35.7242C17.8993 35.7242 14.583 33.8097 12.8031 30.728L5.59094 18.2399C5.53341 18.1403 5.54628 18.0454 5.559 17.9978Z" fill="#FBFBFB"/>
<path d="M20.8073 9.36555C20.9092 9.42582 21.021 9.45444 21.1314 9.45444C21.3496 9.45444 21.5621 9.3425 21.6811 9.1411C22.2309 8.21125 22.5216 7.14591 22.5216 6.06034C22.5216 2.71863 19.8029 0 16.4612 0C13.1195 0 10.4009 2.71863 10.4009 6.06034C10.4009 7.14179 10.6894 8.20352 11.2352 9.13076C11.414 9.43442 11.8051 9.53567 12.1085 9.35688C12.4122 9.17817 12.5133 8.78714 12.3346 8.48355C11.9042 7.75229 11.6767 6.91437 11.6767 6.06034C11.6767 3.42214 13.8229 1.27585 16.4611 1.27585C19.0993 1.27585 21.2456 3.42214 21.2456 6.06034C21.2456 6.91755 21.0165 7.75837 20.5828 8.49172C20.4035 8.79502 20.504 9.18619 20.8073 9.36555Z" fill="#FBFBFB"/>
<path d="M25.046 7.36352C24.7968 7.11442 24.393 7.11442 24.1437 7.36352C23.8946 7.61262 23.8946 8.01652 24.1437 8.26569L27.1739 11.2959C27.2985 11.4204 27.4617 11.4827 27.625 11.4827C27.7882 11.4827 27.9515 11.4204 28.0761 11.2959L31.1062 8.26569C31.3553 8.01659 31.3553 7.6127 31.1062 7.36352C30.8571 7.11442 30.4532 7.11442 30.204 7.36352L28.2629 9.30465V2.17796L30.204 4.11909C30.3286 4.24367 30.4918 4.30596 30.6551 4.30596C30.8184 4.30596 30.9816 4.24367 31.1062 4.11909C31.3553 3.86999 31.3553 3.46609 31.1062 3.21692L28.0761 0.186825C27.827 -0.0622749 27.4231 -0.0622749 27.1739 0.186825L24.1437 3.21699C23.8946 3.46609 23.8946 3.86999 24.1437 4.11916C24.3929 4.36826 24.7967 4.36826 25.046 4.11916L26.9871 2.17803V9.30472L25.046 7.36352Z" fill="#FBFBFB"/>
</g>
<defs>
<clipPath id="clip0_7428_7484">
<rect width="37" height="37" fill="white"/>
</clipPath>
</defs>
</svg>
