<svg width="61" height="48" viewBox="0 0 61 48" fill="none" xmlns="http://www.w3.org/2000/svg">
<g clip-path="url(#clip0_1204_1032)">
<path d="M53.3041 0.15686H8.66205C4.4137 0.15686 0.959961 3.60434 0.959961 7.85269V39.781C0.959961 44.0294 4.4137 47.4831 8.66205 47.4831H53.3041C57.5462 47.4831 61 44.0294 61 39.781V7.85269C61 3.60434 57.5462 0.15686 53.3041 0.15686ZM56.1447 39.781C56.1447 40.8572 55.5378 41.7832 54.6493 42.265L44.0003 28.6189L36.561 34.8194L20.4436 18.3891L5.82147 32.4794V7.85269C5.82147 6.28224 7.0916 5.01212 8.66205 5.01212H53.3041C54.8683 5.01212 56.1447 6.28224 56.1447 7.85269V39.781Z" fill="#B0B0B0"/>
<path d="M53.3042 5.01208H8.66211C7.09166 5.01208 5.82153 6.28221 5.82153 7.85266V32.4793L20.4436 18.3891L36.5611 34.8194L44.0004 28.6189L54.6494 42.2649C55.5379 41.7831 56.1448 40.8571 56.1448 39.781V7.85266C56.1448 6.28221 54.8684 5.01208 53.3042 5.01208ZM43.3809 23.8137C40.384 23.8137 37.9563 21.3861 37.9563 18.3891C37.9563 15.3921 40.384 12.9644 43.3809 12.9644C46.3779 12.9644 48.8056 15.3983 48.8056 18.3891C48.8056 21.3798 46.3779 23.8137 43.3809 23.8137Z" fill="#E1E2E3"/>
<path d="M43.3809 23.8137C46.3769 23.8137 48.8055 21.385 48.8055 18.3891C48.8055 15.3932 46.3769 12.9645 43.3809 12.9645C40.385 12.9645 37.9563 15.3932 37.9563 18.3891C37.9563 21.385 40.385 23.8137 43.3809 23.8137Z" fill="#B0B0B0"/>
</g>
<defs>
<clipPath id="clip0_1204_1032">
<rect width="60.04" height="47.3262" fill="white" transform="translate(0.959961 0.15686)"/>
</clipPath>
</defs>
</svg>
