<svg width="150" height="38" viewBox="0 0 150 38" fill="none" xmlns="http://www.w3.org/2000/svg">
<path d="M25.2838 29.828V30.8394C25.2869 31.7472 25.1068 32.6462 24.7542 33.4827C24.4722 33.4734 24.191 33.448 23.912 33.4064C23.4615 33.3411 22.2249 32.7187 22.2249 32.7187L21.3303 32.2479L16.8932 29.9108L9.84321 25.6438C7.82879 23.9806 6.71171 22.6658 6.71171 20.2754V6.34727C6.70893 5.51758 6.86238 4.69478 7.16406 3.92188C8.09518 4.00635 8.99758 4.28845 9.81103 4.74934L10.576 5.17962C10.417 5.55282 10.3356 5.95449 10.3369 6.36014V19.23C10.3369 20.9135 11.1193 21.8513 12.5288 23.0217C12.5578 23.045 12.5886 23.0662 12.6207 23.0851L17.5855 26.0897L17.6232 26.1109L21.2742 28.2549L21.6659 28.4636C22.2093 28.7514 23.1636 29.2543 23.5121 29.4189C24.0668 29.6797 24.6708 29.8191 25.2838 29.828Z" fill="#1BC5AC"/>
<path d="M28.3747 27.2684C28.3747 27.2822 28.3747 27.2941 28.3674 27.307V30.1948C28.3718 31.2536 28.1254 32.2984 27.6484 33.2436C30.1768 32.2626 32 29.8924 32 26.942V23.337C32.0001 23.2667 31.9818 23.1977 31.9468 23.1368C31.9118 23.0759 31.8614 23.0253 31.8006 22.9901C31.7399 22.9548 31.6709 22.9362 31.6006 22.9361C31.5304 22.936 31.4614 22.9544 31.4005 22.9894L28.7774 24.4945C28.6554 24.5647 28.5539 24.6658 28.4834 24.7877C28.4128 24.9095 28.3757 25.0479 28.3757 25.1887L28.3747 27.2684ZM12.1141 2.51422L25.4051 9.98717C26.3061 10.4942 27.056 11.2318 27.5779 12.1243C28.0998 13.0168 28.3748 14.0321 28.3747 15.066V20.5824C28.3747 20.653 28.3933 20.7223 28.4287 20.7833C28.4641 20.8443 28.515 20.8949 28.5762 20.9299C28.6374 20.965 28.7069 20.9831 28.7774 20.9827C28.8479 20.9822 28.9171 20.9631 28.9779 20.9272L31.6055 19.3808C31.7257 19.31 31.8253 19.2091 31.8945 19.0879C31.9637 18.9668 32 18.8298 32 18.6903V13.7393C32.0002 12.4729 31.6634 11.2293 31.0242 10.1361C30.385 9.04293 29.4665 8.1395 28.3628 7.51856L16.5236 0.854691C13.9023 -0.616362 10.9152 -0.0849452 8.93018 1.65825C10.0471 1.66727 11.1432 1.96193 12.1141 2.51422" fill="#1BC5AC"/>
<path d="M24.8911 23.3316C25.0113 23.2608 25.1109 23.1599 25.1801 23.0388C25.2493 22.9177 25.2856 22.7806 25.2856 22.6411V17.6377C25.2858 16.3713 24.949 15.1277 24.3098 14.0345C23.6706 12.9413 22.752 12.0379 21.6484 11.417L9.80917 4.7531C5.42451 2.28265 0 5.45369 0 10.4911V24.4229C0 26.7959 1.10972 28.1134 3.11036 29.7684C3.12569 29.7809 3.14198 29.7923 3.15909 29.8024L10.1687 34.0482L10.1889 34.0602L15.5123 36.8625C15.5123 36.8625 16.7489 37.4849 17.2003 37.5511C21.459 38.1727 25.2856 35.1156 25.2856 30.8395V27.1876C25.2856 27.1174 25.2671 27.0485 25.232 26.9877C25.197 26.927 25.1466 26.8765 25.0858 26.8414C25.0251 26.8062 24.9562 26.7877 24.886 26.7876C24.8159 26.7876 24.7469 26.806 24.6861 26.841L21.8617 28.4582C21.8005 28.4932 21.7496 28.5438 21.7142 28.6049C21.6789 28.6659 21.6603 28.7352 21.6603 28.8057V31.1263C21.6602 31.1519 21.6578 31.1775 21.653 31.2026C21.071 34.29 18.3781 34.3102 16.7921 33.5591C16.2938 33.3237 14.5542 32.3951 14.5542 32.3951L10.9042 30.251L10.8656 30.2299L5.90076 27.2262C5.86846 27.2072 5.83771 27.1857 5.80882 27.1618C4.40305 25.9942 3.62063 25.0564 3.62063 23.3739V10.5077C3.62076 9.98665 3.75729 9.47473 4.01664 9.02284C4.276 8.57095 4.64914 8.19483 5.09896 7.93189C5.54878 7.66896 6.05959 7.52837 6.5806 7.5241C7.10161 7.51984 7.61467 7.65205 8.06873 7.90759L18.6907 13.8837C19.5917 14.391 20.3416 15.1287 20.8635 16.0214C21.3853 16.9141 21.6604 17.9295 21.6603 18.9635V24.5314C21.6603 24.602 21.6789 24.6713 21.7143 24.7323C21.7497 24.7933 21.8006 24.8439 21.8618 24.8789C21.923 24.9139 21.9925 24.9321 22.063 24.9316C22.1335 24.9312 22.2027 24.912 22.2635 24.8762L24.8911 23.3316Z" fill="#040C22"/>
<g clip-path="url(#clip0_8_2615)">
<path d="M46.6065 29.5709C44.899 28.659 43.4767 27.2946 42.496 25.6277C41.5153 23.8954 41 21.9394 41 19.9497C41 17.9599 41.5153 16.0039 42.496 14.2716C43.489 12.6056 44.9192 11.2421 46.6321 10.3285C48.4426 9.36511 50.4694 8.8786 52.5207 8.91499C54.175 8.89236 55.8165 9.20572 57.3457 9.83601C58.6497 10.3727 59.8216 11.1856 60.7802 12.2185C60.8147 12.2559 60.8416 12.2997 60.8592 12.3474C60.8768 12.3952 60.8848 12.4459 60.8827 12.4967C60.8809 12.5476 60.8689 12.5975 60.8475 12.6437C60.826 12.6898 60.7955 12.7312 60.7577 12.7654L58.7233 14.6842C58.6514 14.7519 58.5563 14.7897 58.4574 14.7897C58.3586 14.789 58.2637 14.7514 58.1915 14.6842C57.4779 13.9573 56.623 13.3837 55.6792 12.9988C54.7354 12.6138 53.7227 12.4255 52.7034 12.4456C51.3175 12.4139 49.9468 12.74 48.7242 13.3922C47.579 14.0153 46.6313 14.9458 45.9882 16.0785C45.3426 17.2763 45.0048 18.6152 45.0048 19.9753C45.0048 21.3354 45.3426 22.6742 45.9882 23.872C46.6322 25.004 47.5797 25.9342 48.7242 26.5583C49.9423 27.2118 51.308 27.5421 52.6905 27.5177C53.7166 27.5337 54.735 27.3383 55.682 26.9438C56.629 26.5493 57.4844 25.9641 58.1947 25.2248C58.2302 25.1889 58.2728 25.1606 58.3196 25.1416C58.3652 25.1223 58.4143 25.1125 58.4638 25.1129C58.5133 25.1129 58.5623 25.1226 58.608 25.1416C58.6535 25.1614 58.6948 25.1896 58.7297 25.2248L60.7641 27.1436C60.8381 27.2134 60.8818 27.3093 60.886 27.4108C60.8902 27.5124 60.8545 27.6115 60.7866 27.6872C59.8202 28.7215 58.6424 29.5362 57.3329 30.0761C55.7972 30.7032 54.151 31.0164 52.4919 30.9972C50.4405 31.0254 48.4155 30.5336 46.6065 29.5677V29.5709Z" fill="black"/>
<path d="M72.4998 14.4248V18.0769C72.2063 18.0198 71.9081 17.9898 71.6091 17.9874C70.114 17.9874 68.9457 18.4212 68.1042 19.289C67.2626 20.1567 66.8429 21.4103 66.8451 23.0498V31H63.0005V14.6103H66.6656V17.0024C67.7699 15.284 69.7146 14.4248 72.4998 14.4248Z" fill="black"/>
<path d="M91.2615 23.811H78.379C78.566 24.9654 79.2014 25.9996 80.1475 26.6892C81.183 27.4198 82.4299 27.7916 83.6973 27.7478C85.2333 27.7506 86.7126 27.1684 87.8334 26.12C87.8703 26.085 87.9139 26.0578 87.9615 26.04C88.0098 26.023 88.061 26.0154 88.1121 26.0176C88.1633 26.0182 88.2136 26.0303 88.2595 26.0528C88.3053 26.0749 88.3465 26.1053 88.3812 26.1424L89.9543 27.9492C90.0166 28.0212 90.0508 28.1132 90.0508 28.2083C90.0508 28.3034 90.0166 28.3953 89.9543 28.4673C89.2586 29.2671 88.3928 29.9019 87.4201 30.3253C86.0352 30.8314 84.5631 31.0568 83.0899 30.9881C81.6167 30.9195 80.172 30.5583 78.8403 29.9256C77.512 29.255 76.4061 28.2155 75.6557 26.9323C74.8964 25.6133 74.5089 24.1137 74.5344 22.5926C74.5155 21.0829 74.8957 19.5949 75.6365 18.2785C76.3453 17.0212 77.3931 15.9874 78.6609 15.2948C80.0002 14.5692 81.5041 14.2002 83.0277 14.2234C84.5255 14.198 86.0041 14.5628 87.3176 15.282C88.5633 15.9761 89.5864 17.0084 90.2683 18.2593C90.998 19.6213 91.3654 21.1475 91.3352 22.6917C91.3352 22.9444 91.3031 23.3217 91.2615 23.811ZM79.9008 18.3744C79.0394 19.1147 78.4854 20.1489 78.3469 21.275H87.6636C87.5395 20.1473 86.9912 19.1087 86.1295 18.369C85.2678 17.6294 84.1568 17.2438 83.0213 17.2903C81.8842 17.2539 80.7735 17.6363 79.9008 18.3648V18.3744Z" fill="black"/>
<path d="M110.878 8.38376V30.3892C110.879 30.4397 110.869 30.4897 110.85 30.5363C110.83 30.583 110.802 30.6254 110.766 30.661C110.694 30.7326 110.596 30.7728 110.494 30.7729H107.572C107.47 30.7721 107.373 30.7314 107.301 30.6596C107.229 30.5878 107.188 30.4907 107.188 30.3892V28.6655C106.563 29.437 105.754 30.0396 104.836 30.418C103.855 30.815 102.805 31.0129 101.747 31C100.261 31.0184 98.7948 30.655 97.4896 29.9447C96.2385 29.257 95.2086 28.229 94.5197 26.9801C93.8144 25.6218 93.4463 24.1143 93.4463 22.5845C93.4463 21.0546 93.8144 19.5471 94.5197 18.1888C95.2102 16.9461 96.2401 15.9247 97.4896 15.2435C98.7954 14.5356 100.262 14.1755 101.747 14.1977C102.768 14.1852 103.782 14.3732 104.73 14.751C105.621 15.1112 106.412 15.6792 107.037 16.4075V8.38376C107.037 8.3333 107.046 8.28327 107.066 8.23665C107.085 8.18985 107.113 8.14741 107.149 8.11192C107.184 8.07564 107.227 8.04729 107.274 8.02877C107.321 8.00999 107.371 8.00023 107.421 8H110.494C110.596 8 110.694 8.04042 110.766 8.11239C110.838 8.18436 110.878 8.28198 110.878 8.38376V8.38376ZM104.698 27.0665C105.441 26.6463 106.049 26.0241 106.451 25.2724C106.876 24.4355 107.098 23.5102 107.098 22.5717C107.098 21.6332 106.876 20.7079 106.451 19.871C106.049 19.1183 105.441 18.495 104.698 18.0737C103.933 17.6603 103.077 17.4438 102.207 17.4438C101.337 17.4438 100.481 17.6603 99.7163 18.0737C98.9755 18.4978 98.3684 19.1204 97.9638 19.871C97.5405 20.7085 97.32 21.6336 97.32 22.5717C97.32 23.5098 97.5405 24.4348 97.9638 25.2724C98.3704 26.0207 98.9771 26.6418 99.7163 27.0665C100.481 27.4799 101.337 27.6964 102.207 27.6964C103.077 27.6964 103.933 27.4799 104.698 27.0665V27.0665Z" fill="black"/>
<path d="M116.575 13.4684C117.096 13.4684 117.605 13.3143 118.038 13.0254C118.471 12.7366 118.808 12.326 119.008 11.8457C119.207 11.3653 119.259 10.8368 119.158 10.3269C119.056 9.81693 118.805 9.34852 118.437 8.98088C118.069 8.61324 117.599 8.36288 117.088 8.26145C116.578 8.16002 116.048 8.21208 115.567 8.41104C115.086 8.61001 114.674 8.94693 114.385 9.37923C114.096 9.81152 113.941 10.3198 113.941 10.8397C113.941 11.1849 114.009 11.5267 114.142 11.8457C114.274 12.1646 114.468 12.4544 114.713 12.6985C114.957 12.9426 115.247 13.1362 115.567 13.2684C115.886 13.4005 116.229 13.4684 116.575 13.4684Z" fill="#1BC5AC"/>
<path d="M116.575 15.3844C115.974 15.3831 115.39 15.1916 114.905 14.8375C114.882 14.8196 114.854 14.8085 114.825 14.8055C114.796 14.8026 114.766 14.8079 114.74 14.8209C114.713 14.8339 114.691 14.8541 114.676 14.8791C114.66 14.9041 114.652 14.9329 114.652 14.9623V30.6324C114.653 30.734 114.694 30.8311 114.766 30.9029C114.838 30.9747 114.935 31.0154 115.037 31.0162H118.112C118.214 31.0161 118.312 30.9759 118.385 30.9043C118.421 30.8687 118.449 30.8263 118.468 30.7796C118.487 30.7329 118.497 30.6829 118.497 30.6324V14.9655C118.498 14.9358 118.49 14.9066 118.475 14.8811C118.46 14.8556 118.437 14.835 118.411 14.8216C118.384 14.8082 118.355 14.8026 118.325 14.8054C118.295 14.8082 118.267 14.8194 118.244 14.8375C117.76 15.1924 117.175 15.384 116.575 15.3844Z" fill="black"/>
<path d="M133.574 29.6281C133.608 29.7071 133.613 29.7951 133.59 29.8776C133.567 29.9602 133.516 30.0324 133.446 30.0822C133.016 30.374 132.539 30.5903 132.036 30.7218C131.372 30.9103 130.683 31.0039 129.992 31.0001C128.192 31.0001 126.803 30.5289 125.827 29.5866C124.851 28.6442 124.354 27.2787 124.334 25.4899V17.5973H122.015C121.913 17.5964 121.816 17.5557 121.744 17.4839C121.672 17.4122 121.631 17.315 121.63 17.2135V14.9109C121.631 14.8094 121.672 14.7123 121.744 14.6405C121.816 14.5687 121.913 14.528 122.015 14.5272H124.334V11.1533C124.334 11.1025 124.345 11.0522 124.366 11.0062C124.384 10.9586 124.412 10.9159 124.45 10.8815C124.485 10.8463 124.526 10.8181 124.571 10.7983C124.618 10.7795 124.668 10.7698 124.719 10.7695H127.794C127.845 10.7692 127.895 10.779 127.942 10.7983C127.989 10.8176 128.031 10.8459 128.067 10.8816C128.102 10.9172 128.131 10.9596 128.15 11.0062C128.169 11.0529 128.179 11.1029 128.179 11.1533V14.5144H130.675C130.777 14.5152 130.874 14.5553 130.947 14.6263C130.982 14.6617 131.01 14.7037 131.028 14.7498C131.047 14.7959 131.056 14.8452 131.056 14.895V17.2295C131.056 17.2792 131.047 17.3286 131.028 17.3747C131.01 17.4208 130.982 17.4627 130.947 17.4981C130.874 17.5692 130.777 17.6093 130.675 17.6101H128.179V25.4068C128.134 26.0673 128.342 26.7203 128.762 27.2328C128.982 27.4532 129.247 27.6241 129.539 27.7344C129.831 27.8447 130.142 27.8917 130.454 27.8724C131.077 27.8804 131.691 27.7249 132.235 27.4215C132.285 27.3969 132.339 27.3828 132.395 27.3799C132.45 27.3767 132.505 27.3866 132.555 27.4087C132.606 27.4286 132.652 27.4592 132.69 27.4983C132.728 27.5375 132.758 27.5843 132.776 27.6358L133.574 29.6281Z" fill="black"/>
<path d="M148.078 15.9279C149.359 17.0856 150 18.8306 150 21.163V30.3861C150 30.4878 149.959 30.5855 149.887 30.6574C149.815 30.7294 149.717 30.7698 149.616 30.7698H146.761C146.659 30.7698 146.561 30.7294 146.489 30.6574C146.417 30.5855 146.376 30.4878 146.376 30.3861V28.7871C145.883 29.5217 145.181 30.0929 144.361 30.4276C142.303 31.2104 140.023 31.1853 137.982 30.3573C137.119 29.987 136.378 29.3806 135.846 28.608C135.342 27.8597 135.08 26.9762 135.093 26.0752C135.07 25.3975 135.208 24.724 135.493 24.1087C135.778 23.4934 136.204 22.9533 136.736 22.5318C137.832 21.6427 139.559 21.1972 141.917 21.195H146.162V20.952C146.162 19.8039 145.819 18.9212 145.13 18.3104C144.441 17.6996 143.423 17.3926 142.071 17.3894C141.147 17.3901 140.229 17.5358 139.351 17.8211C138.666 18.0306 138.018 18.3433 137.428 18.7485C137.384 18.7805 137.334 18.8033 137.281 18.8157C137.228 18.8253 137.174 18.8253 137.121 18.8157C137.067 18.8039 137.017 18.781 136.973 18.7485C136.928 18.7169 136.891 18.6754 136.864 18.627L135.727 16.5099C135.681 16.4272 135.667 16.3304 135.689 16.2381C135.708 16.1452 135.762 16.063 135.839 16.0079C136.706 15.4225 137.663 14.9818 138.671 14.7031C139.922 14.3511 141.216 14.1756 142.516 14.1818C144.94 14.1925 146.794 14.7745 148.078 15.9279ZM144.47 27.5878C145.217 27.1497 145.588 26.4813 145.838 25.6434C145.958 25.1593 146.046 24.6679 146.101 24.1724C146.112 24.1196 146.112 24.0652 146.101 24.0125C146.086 23.9589 146.058 23.9096 146.021 23.8685C145.985 23.8286 145.941 23.7961 145.893 23.7726C145.842 23.751 145.788 23.7401 145.732 23.7406H142.208C140.028 23.7406 138.92 24.4463 138.886 25.8577C138.868 26.3978 139.062 26.9236 139.427 27.3224C139.988 27.9012 140.853 28.1922 142.022 28.189C142.883 28.2247 143.736 28.0162 144.483 27.5878H144.47Z" fill="black"/>
</g>
<defs>
<clipPath id="clip0_8_2615">
<rect width="109" height="23" fill="white" transform="translate(41 8)"/>
</clipPath>
</defs>
</svg>
