<svg width="22" height="21" viewBox="0 0 22 21" fill="none" xmlns="http://www.w3.org/2000/svg">
<g clip-path="url(#clip0_7602_5797)">
<path d="M16.0659 7.12061H3.63085L6.175 4.57646C6.53314 4.21832 6.53314 3.63777 6.175 3.27963C5.81676 2.92139 5.23631 2.92149 4.87807 3.27963L0.768603 7.38929C0.410466 7.74743 0.410466 8.32799 0.768603 8.68613L4.87807 12.7956C5.05719 12.9747 5.29183 13.0642 5.52648 13.0642C5.76113 13.0642 5.99578 12.9746 6.1749 12.7956C6.53304 12.4375 6.53304 11.8569 6.1749 11.4988L3.63075 8.9546H16.0658C18.0509 8.9546 19.6659 10.5696 19.6659 12.5547C19.6659 14.5398 18.0509 16.1548 16.0658 16.1548H8.50142C7.99493 16.1548 7.58442 16.5654 7.58442 17.0718C7.58442 17.5783 7.99493 17.9888 8.50142 17.9888H16.0658C19.0621 17.9888 21.4999 15.5511 21.4999 12.5547C21.4999 9.55839 19.0622 7.12061 16.0659 7.12061Z" fill="#333333"/>
</g>
<defs>
<clipPath id="clip0_7602_5797">
<rect width="21" height="21" fill="white" transform="translate(0.5)"/>
</clipPath>
</defs>
</svg>
