<svg width="16" height="17" viewBox="0 0 16 17" fill="none" xmlns="http://www.w3.org/2000/svg">
<path d="M13.245 3.82996L8.405 1.59996L8.33 1.56996C8.11344 1.51493 7.88656 1.51493 7.67 1.56996L7.595 1.59996L2.755 3.82996C2.52639 3.93521 2.33487 4.10703 2.20552 4.32292C2.07616 4.53881 2.01499 4.78873 2.03 5.03996L2.2 7.87996C2.29647 9.51342 2.85534 11.0858 3.81145 12.4137C4.76755 13.7416 6.08148 14.7704 7.6 15.38C7.72726 15.4372 7.86544 15.4662 8.005 15.465C8.13766 15.467 8.26913 15.4397 8.39 15.385C9.91039 14.7769 11.2264 13.7488 12.1844 12.4208C13.1423 11.0927 13.7027 9.51955 13.8 7.88496L13.97 5.04496C13.986 4.7929 13.9254 4.5419 13.7959 4.32501C13.6665 4.10812 13.4744 3.93552 13.245 3.82996ZM10.625 7.32996L7.955 10.33C7.91156 10.3797 7.85871 10.4203 7.7995 10.4495C7.74029 10.4786 7.67588 10.4958 7.61 10.5H7.585C7.45936 10.5009 7.33797 10.4545 7.245 10.37L5.41 8.67996C5.31253 8.58978 5.25488 8.46458 5.24972 8.3319C5.24456 8.19922 5.29233 8.06992 5.3825 7.97246C5.47267 7.87499 5.59787 7.81734 5.73055 7.81218C5.86324 7.80702 5.99253 7.85478 6.09 7.94496L7.55 9.28996L9.875 6.66996C9.96425 6.57704 10.0859 6.52216 10.2146 6.51676C10.3434 6.51136 10.4692 6.55585 10.5659 6.64096C10.6626 6.72607 10.7228 6.84523 10.7338 6.9736C10.7448 7.10196 10.7058 7.22962 10.625 7.32996Z" fill="#00B14F"/>
</svg>
